HIERARCHY
ROOT Hips
{
    OFFSET 0.000000 0.000000 0.000000
    CHANNELS 6 Xposition Yposition Zposition Zrotation Xrotation Yrotation
    JOINT Spine
    {
        OFFSET -0.000000 8.185774 0.000000
        CHANNELS 3 Zrotation Xrotation Yrotation
        JOINT Spine1
        {
            OFFSET -0.000000 23.949169 0.000000
            CHANNELS 3 Zrotation Xrotation Yrotation
            JOINT Neck
            {
                OFFSET -0.000000 23.850817 2.168256
                CHANNELS 3 Zrotation Xrotation Yrotation
                JOINT Head
                {
                    OFFSET -0.000000 13.975711 -1.996530
                    CHANNELS 3 Zrotation Xrotation Yrotation
                    End Site
                    {
                        OFFSET -0.000000 24.956627 0.000000
                    }
                }
            }
            JOINT LeftShoulder
            {
                OFFSET 3.979389 22.161966 -0.249083
                CHANNELS 3 Zrotation Xrotation Yrotation
                JOINT LeftArm
                {
                    OFFSET 10.812937 0.000000 0.000000
                    CHANNELS 3 Zrotation Xrotation Yrotation
                    JOINT LeftForeArm
                    {
                        OFFSET 31.697208 0.000000 0.000000
                        CHANNELS 3 Zrotation Xrotation Yrotation
                        JOINT LeftHand
                        {
                            OFFSET 27.047384 0.000000 0.000000
                            CHANNELS 3 Zrotation Xrotation Yrotation
                            End Site
                            {
                                OFFSET 14.973977 0.000000 0.000000
                            }
                        }
                    }
                }
            }
            JOINT RightShoulder
            {
                OFFSET -4.006446 22.161966 -0.249083
                CHANNELS 3 Zrotation Xrotation Yrotation
                JOINT RightArm
                {
                    OFFSET -10.812937 0.000000 0.000000
                    CHANNELS 3 Zrotation Xrotation Yrotation
                    JOINT RightForeArm
                    {
                        OFFSET -31.697208 0.000000 0.000000
                        CHANNELS 3 Zrotation Xrotation Yrotation
                        JOINT RightHand
                        {
                            OFFSET -27.047384 0.000000 0.000000
                            CHANNELS 3 Zrotation Xrotation Yrotation
                            End Site
                            {
                                OFFSET -14.973977 0.000000 0.000000
                            }
                        }
                    }
                }
            }
        }
    }
    JOINT LeftUpLeg
    {
        OFFSET 9.982651 0.000000 0.000000
        CHANNELS 3 Zrotation Xrotation Yrotation
        JOINT LeftLeg
        {
            OFFSET -0.000000 -38.511635 0.000000
            CHANNELS 3 Zrotation Xrotation Yrotation
            JOINT LeftFoot
            {
                OFFSET -0.000000 -44.789326 0.000000
                CHANNELS 3 Zrotation Xrotation Yrotation
                JOINT LeftToeBase
                {
                    OFFSET -0.000000 -6.488723 14.973977
                    CHANNELS 3 Zrotation Xrotation Yrotation
                    End Site
                    {
                        OFFSET -0.000000 0.000000 3.993060
                    }
                }
            }
        }
    }
    JOINT RightUpLeg
    {
        OFFSET -9.982651 0.000000 0.000000
        CHANNELS 3 Zrotation Xrotation Yrotation
        JOINT RightLeg
        {
            OFFSET -0.000000 -38.511635 0.000000
            CHANNELS 3 Zrotation Xrotation Yrotation
            JOINT RightFoot
            {
                OFFSET -0.000000 -44.789326 0.000000
                CHANNELS 3 Zrotation Xrotation Yrotation
                JOINT RightToeBase
                {
                    OFFSET -0.000000 -6.488723 14.973977
                    CHANNELS 3 Zrotation Xrotation Yrotation
                    End Site
                    {
                        OFFSET -0.000000 0.000000 3.993060
                    }
                }
            }
        }
    }
}
MOTION
Frames:    4
Frame Time:    0.008333
-8.407233    100.292564    -106.492142    0.877946    5.787034    -173.803253    3.932683    0.721678    -1.006871    -10.919176    -15.658825    -2.487947    24.497278    25.087484    -2.762243    -12.744553    -13.977026    -4.082437    19.775810    -9.826378    -16.320763    -27.269341    -2.986352    -68.203568    38.896278    -40.911648    -58.083660    -13.885077    -23.009995    12.323449    -1.613501    -7.162721    12.638066    7.891371    8.576504    65.082283    -26.183062    9.381050    30.305746    13.411226    14.933318    -13.076922    3.469873    -0.834302    1.260580    5.180367    35.515282    -0.179378    -5.209278    11.352864    9.648843    0.000000    0.000000    0.000000    10.626703    -7.778241    -12.487744    -23.810633    36.216969    -7.510891    1.741410    28.056921    16.369568    0.000000    0.000000    0.000000    
-8.343163    100.197960    -106.594612    0.904431    5.828846    -174.118835    3.890424    0.707682    -1.059581    -10.678576    -15.480473    -2.491028    23.646406    25.199955    -2.504102    -12.085283    -13.599272    -3.651093    19.658333    -9.799817    -16.026970    -27.171381    -2.751905    -67.870872    39.151474    -40.793926    -58.142780    -15.392357    -22.808844    12.076827    -1.594780    -6.917413    12.784102    8.379050    9.583016    65.437073    -25.886036    8.850284    30.802799    10.635048    14.764944    -13.040972    3.554988    -1.143163    1.543275    5.215114    36.159164    -0.005217    -5.163348    11.503127    9.422765    0.000000    0.000000    0.000000    10.689430    -7.425200    -12.195441    -23.564777    35.929035    -8.510844    1.254363    27.921740    17.254177    0.000000    0.000000    0.000000    
-8.314997    100.086304    -106.710365    0.862748    5.843013    -174.518585    3.644853    0.553016    -0.931235    -10.304198    -15.082565    -2.281371    23.277271    25.000576    -2.469537    -11.926653    -12.981975    -3.591954    19.513140    -9.750269    -15.964091    -27.005293    -2.558026    -67.783203    39.901218    -40.388885    -57.532196    -16.998558    -22.161957    11.074684    -1.534719    -6.604280    12.745124    8.649479    10.546750    65.567009    -25.416183    8.141746    31.519749    7.739439    14.393968    -13.599968    3.536647    -1.452406    1.929704    5.320964    36.812481    0.089903    -5.174437    11.633356    9.209794    0.000000    0.000000    0.000000    10.654633    -7.087897    -11.822980    -23.385134    35.637730    -9.528435    0.780025    27.846851    18.319569    0.000000    0.000000    0.000000    
-8.293063    99.959343    -106.804276    0.796648    5.849825    -174.895386    3.611938    0.554205    -0.935498    -10.224035    -15.037359    -2.270930    22.722902    25.392746    -2.248410    -11.639441    -12.948909    -3.244587    19.360405    -9.374614    -15.684171    -26.632021    -2.339922    -67.578590    40.854595    -40.398346    -56.920895    -19.548447    -21.957333    10.064284    -1.355358    -6.241086    12.840559    8.722145    11.889881    66.126846    -25.382618    7.460674    31.594780    6.619709    13.866406    -13.582314    3.473517    -1.837812    2.094728    5.304120    37.549259    0.343968    -5.233605    11.798429    9.132428    0.000000    0.000000    0.000000    10.559400    -6.785730    -11.480399    -23.175060    35.397690    -10.581327    0.292001    27.690018    19.405540    0.000000    0.000000    0.000000    
